<svg xmlns="http://www.w3.org/2000/svg" width="1000" height="750">
    <circle cx="332.9" cy="276.1" r="0.3" fill="#fff" opacity="0.23" />
    <circle cx="482.1" cy="420.9" r="0.5" fill="#fff" opacity="0.40" />
    <circle cx="835.7" cy="383.3" r="0.9" fill="#fff" opacity="0.50" />
    <circle cx="152.6" cy="389.5" r="1.5" fill="#fff" opacity="0.20" />
    <circle cx="330.6" cy="392.0" r="0.8" fill="#fff" opacity="0.37" />
    <circle cx="984.5" cy="299.1" r="0.4" fill="#fff" opacity="0.26" />
    <circle cx="165.4" cy="660.7" r="0.5" fill="#fff" opacity="0.33" />
    <circle cx="507.8" cy="254.1" r="1.8" fill="#fff" opacity="0.42" />
    <circle cx="923.4" cy="734.2" r="1.4" fill="#fff" opacity="0.47" />
    <circle cx="981.4" cy="26.8" r="0.7" fill="#fff" opacity="0.43" />
    <circle cx="486.5" cy="312.0" r="0.1" fill="#fff" opacity="0.34" />
    <circle cx="907.8" cy="448.7" r="0.2" fill="#fff" opacity="0.46" />
    <circle cx="521.6" cy="133.7" r="0.6" fill="#fff" opacity="0.34" />
    <circle cx="212.3" cy="413.1" r="1.0" fill="#fff" opacity="0.44" />
    <circle cx="551.6" cy="194.0" r="1.2" fill="#fff" opacity="0.11" />
    <circle cx="732.2" cy="698.3" r="1.9" fill="#fff" opacity="0.10" />
    <circle cx="949.3" cy="691.1" r="0.8" fill="#fff" opacity="0.41" />
    <circle cx="231.5" cy="28.7" r="0.3" fill="#fff" opacity="0.22" />
    <circle cx="98.1" cy="441.7" r="1.8" fill="#fff" opacity="0.34" />
    <circle cx="434.2" cy="195.2" r="0.3" fill="#fff" opacity="0.50" />
    <circle cx="801.8" cy="303.4" r="0.7" fill="#fff" opacity="0.32" />
    <circle cx="165.3" cy="245.2" r="1.5" fill="#fff" opacity="0.08" />
    <circle cx="231.7" cy="640.9" r="1.0" fill="#fff" opacity="0.45" />
    <circle cx="536.2" cy="455.0" r="0.6" fill="#fff" opacity="0.25" />
    <circle cx="211.6" cy="70.6" r="1.8" fill="#fff" opacity="0.16" />
    <circle cx="728.3" cy="457.2" r="1.1" fill="#fff" opacity="0.16" />
    <circle cx="93.2" cy="591.9" r="1.4" fill="#fff" opacity="0.49" />
    <circle cx="410.0" cy="93.7" r="1.9" fill="#fff" opacity="0.24" />
    <circle cx="989.1" cy="116.1" r="0.3" fill="#fff" opacity="0.12" />
    <circle cx="543.2" cy="438.9" r="1.9" fill="#fff" opacity="0.47" />
    <circle cx="173.3" cy="719.3" r="0.8" fill="#fff" opacity="0.25" />
    <circle cx="5.7" cy="118.3" r="0.9" fill="#fff" opacity="0.32" />
    <circle cx="940.3" cy="75.6" r="1.2" fill="#fff" opacity="0.23" />
    <circle cx="533.8" cy="585.1" r="0.4" fill="#fff" opacity="0.42" />
    <circle cx="44.3" cy="627.6" r="0.7" fill="#fff" opacity="0.39" />
    <circle cx="129.2" cy="557.8" r="0.3" fill="#fff" opacity="0.17" />
    <circle cx="613.8" cy="128.9" r="0.1" fill="#fff" opacity="0.14" />
    <circle cx="524.4" cy="568.0" r="1.3" fill="#fff" opacity="0.38" />
    <circle cx="945.2" cy="702.5" r="1.2" fill="#fff" opacity="0.17" />
    <circle cx="455.5" cy="289.1" r="0.5" fill="#fff" opacity="0.22" />
    <circle cx="160.0" cy="379.1" r="1.8" fill="#fff" opacity="0.32" />
    <circle cx="858.4" cy="653.1" r="0.0" fill="#fff" opacity="0.45" />
    <circle cx="856.8" cy="135.8" r="1.7" fill="#fff" opacity="0.48" />
    <circle cx="628.0" cy="79.7" r="0.8" fill="#fff" opacity="0.34" />
    <circle cx="420.3" cy="660.6" r="0.7" fill="#fff" opacity="0.36" />
    <circle cx="513.5" cy="592.1" r="1.3" fill="#fff" opacity="0.19" />
    <circle cx="431.7" cy="36.3" r="0.3" fill="#fff" opacity="0.41" />
    <circle cx="59.1" cy="254.6" r="1.7" fill="#fff" opacity="0.47" />
    <circle cx="947.6" cy="674.4" r="1.5" fill="#fff" opacity="0.04" />
    <circle cx="144.3" cy="122.3" r="0.4" fill="#fff" opacity="0.38" />
    <circle cx="152.4" cy="450.1" r="2.0" fill="#fff" opacity="0.19" />
    <circle cx="179.2" cy="539.3" r="0.6" fill="#fff" opacity="0.43" />
    <circle cx="677.0" cy="573.0" r="0.6" fill="#fff" opacity="0.31" />
    <circle cx="444.5" cy="695.6" r="1.1" fill="#fff" opacity="0.34" />
    <circle cx="923.6" cy="275.5" r="1.9" fill="#fff" opacity="0.36" />
    <circle cx="821.2" cy="339.3" r="1.3" fill="#fff" opacity="0.26" />
    <circle cx="115.7" cy="314.2" r="0.4" fill="#fff" opacity="0.41" />
    <circle cx="465.5" cy="630.8" r="0.9" fill="#fff" opacity="0.37" />
    <circle cx="726.8" cy="252.7" r="1.9" fill="#fff" opacity="0.40" />
    <circle cx="512.3" cy="5.4" r="1.4" fill="#fff" opacity="0.50" />
    <circle cx="449.2" cy="699.2" r="1.6" fill="#fff" opacity="0.33" />
    <circle cx="725.6" cy="201.9" r="0.7" fill="#fff" opacity="0.25" />
    <circle cx="87.9" cy="698.3" r="0.8" fill="#fff" opacity="0.35" />
    <circle cx="926.4" cy="660.2" r="1.7" fill="#fff" opacity="0.35" />
    <circle cx="957.7" cy="585.2" r="0.1" fill="#fff" opacity="0.31" />
    <circle cx="847.9" cy="722.4" r="1.9" fill="#fff" opacity="0.33" />
    <circle cx="986.4" cy="570.5" r="0.5" fill="#fff" opacity="0.24" />
    <circle cx="906.0" cy="470.5" r="1.6" fill="#fff" opacity="0.46" />
    <circle cx="431.6" cy="731.4" r="0.0" fill="#fff" opacity="0.32" />
    <circle cx="963.7" cy="713.0" r="0.9" fill="#fff" opacity="0.48" />
    <circle cx="194.9" cy="514.0" r="1.5" fill="#fff" opacity="0.20" />
    <circle cx="744.6" cy="418.3" r="0.9" fill="#fff" opacity="0.45" />
    <circle cx="314.4" cy="558.8" r="1.6" fill="#fff" opacity="0.49" />
    <circle cx="62.5" cy="372.7" r="0.7" fill="#fff" opacity="0.31" />
    <circle cx="660.8" cy="141.8" r="0.8" fill="#fff" opacity="0.24" />
    <circle cx="742.8" cy="439.2" r="0.1" fill="#fff" opacity="0.36" />
    <circle cx="418.4" cy="124.7" r="0.1" fill="#fff" opacity="0.41" />
    <circle cx="293.6" cy="425.8" r="1.1" fill="#fff" opacity="0.28" />
    <circle cx="513.0" cy="477.1" r="0.8" fill="#fff" opacity="0.46" />
    <circle cx="556.1" cy="380.5" r="0.1" fill="#fff" opacity="0.16" />
    <circle cx="608.2" cy="686.2" r="1.4" fill="#fff" opacity="0.31" />
    <circle cx="419.8" cy="550.8" r="1.5" fill="#fff" opacity="0.31" />
    <circle cx="912.6" cy="259.7" r="1.7" fill="#fff" opacity="0.15" />
    <circle cx="285.6" cy="558.5" r="1.6" fill="#fff" opacity="0.24" />
    <circle cx="162.8" cy="148.5" r="0.3" fill="#fff" opacity="0.46" />
    <circle cx="902.1" cy="426.0" r="0.1" fill="#fff" opacity="0.26" />
    <circle cx="494.0" cy="571.9" r="0.2" fill="#fff" opacity="0.24" />
    <circle cx="898.6" cy="638.0" r="0.0" fill="#fff" opacity="0.38" />
    <circle cx="788.4" cy="80.9" r="0.7" fill="#fff" opacity="0.49" />
    <circle cx="293.8" cy="550.5" r="0.5" fill="#fff" opacity="0.23" />
    <circle cx="619.6" cy="137.2" r="0.9" fill="#fff" opacity="0.13" />
    <circle cx="182.9" cy="453.6" r="1.2" fill="#fff" opacity="0.26" />
    <circle cx="282.6" cy="37.2" r="1.0" fill="#fff" opacity="0.08" />
    <circle cx="825.9" cy="390.8" r="1.2" fill="#fff" opacity="0.44" />
    <circle cx="985.3" cy="692.0" r="0.1" fill="#fff" opacity="0.20" />
    <circle cx="400.1" cy="691.0" r="1.4" fill="#fff" opacity="0.38" />
    <circle cx="684.7" cy="148.6" r="1.1" fill="#fff" opacity="0.25" />
    <circle cx="96.6" cy="287.2" r="0.5" fill="#fff" opacity="0.46" />
    <circle cx="669.7" cy="520.4" r="0.3" fill="#fff" opacity="0.16" />
    <circle cx="341.8" cy="345.9" r="1.4" fill="#fff" opacity="0.49" />
    <circle cx="130.0" cy="11.8" r="2.0" fill="#fff" opacity="0.37" />
    <circle cx="882.3" cy="433.0" r="0.1" fill="#fff" opacity="0.19" />
    <circle cx="121.4" cy="173.7" r="1.2" fill="#fff" opacity="0.08" />
    <circle cx="716.0" cy="649.8" r="1.0" fill="#fff" opacity="0.41" />
    <circle cx="138.6" cy="453.0" r="1.4" fill="#fff" opacity="0.47" />
    <circle cx="255.4" cy="346.2" r="0.1" fill="#fff" opacity="0.12" />
    <circle cx="673.3" cy="377.4" r="0.7" fill="#fff" opacity="0.35" />
    <circle cx="832.3" cy="398.4" r="1.3" fill="#fff" opacity="0.39" />
    <circle cx="912.7" cy="313.3" r="0.1" fill="#fff" opacity="0.46" />
    <circle cx="788.8" cy="47.1" r="1.1" fill="#fff" opacity="0.29" />
    <circle cx="134.6" cy="223.3" r="0.5" fill="#fff" opacity="0.48" />
    <circle cx="526.2" cy="632.0" r="0.8" fill="#fff" opacity="0.14" />
    <circle cx="208.3" cy="617.0" r="0.4" fill="#fff" opacity="0.34" />
    <circle cx="219.0" cy="427.2" r="0.3" fill="#fff" opacity="0.12" />
    <circle cx="992.0" cy="35.6" r="0.7" fill="#fff" opacity="0.48" />
    <circle cx="648.4" cy="307.2" r="0.9" fill="#fff" opacity="0.49" />
    <circle cx="50.0" cy="481.7" r="1.7" fill="#fff" opacity="0.17" />
    <circle cx="589.1" cy="409.5" r="0.0" fill="#fff" opacity="0.34" />
    <circle cx="658.8" cy="683.5" r="0.9" fill="#fff" opacity="0.24" />
    <circle cx="798.7" cy="684.9" r="0.4" fill="#fff" opacity="0.43" />
    <circle cx="356.0" cy="645.4" r="1.6" fill="#fff" opacity="0.08" />
    <circle cx="130.5" cy="534.6" r="1.9" fill="#fff" opacity="0.49" />
    <circle cx="430.7" cy="550.2" r="0.6" fill="#fff" opacity="0.37" />
    <circle cx="468.3" cy="704.2" r="0.1" fill="#fff" opacity="0.18" />
    <circle cx="394.5" cy="647.7" r="1.3" fill="#fff" opacity="0.43" />
    <circle cx="193.4" cy="474.1" r="1.3" fill="#fff" opacity="0.26" />
    <circle cx="857.7" cy="147.2" r="1.2" fill="#fff" opacity="0.23" />
    <circle cx="382.7" cy="254.5" r="1.7" fill="#fff" opacity="0.47" />
    <circle cx="736.1" cy="42.3" r="1.8" fill="#fff" opacity="0.27" />
    <circle cx="412.9" cy="531.1" r="0.0" fill="#fff" opacity="0.48" />
    <circle cx="719.9" cy="612.4" r="0.9" fill="#fff" opacity="0.48" />
    <circle cx="545.6" cy="210.0" r="1.2" fill="#fff" opacity="0.33" />
    <circle cx="930.9" cy="369.6" r="0.7" fill="#fff" opacity="0.44" />
    <circle cx="235.8" cy="255.0" r="0.8" fill="#fff" opacity="0.37" />
    <circle cx="317.7" cy="518.6" r="0.2" fill="#fff" opacity="0.38" />
    <circle cx="971.9" cy="64.3" r="0.6" fill="#fff" opacity="0.45" />
    <circle cx="19.5" cy="330.4" r="0.1" fill="#fff" opacity="0.35" />
    <circle cx="669.8" cy="471.0" r="0.0" fill="#fff" opacity="0.40" />
    <circle cx="83.8" cy="20.0" r="1.8" fill="#fff" opacity="0.34" />
    <circle cx="398.3" cy="358.0" r="0.0" fill="#fff" opacity="0.30" />
    <circle cx="825.4" cy="657.4" r="0.9" fill="#fff" opacity="0.37" />
    <circle cx="768.3" cy="572.7" r="0.6" fill="#fff" opacity="0.42" />
    <circle cx="210.9" cy="618.0" r="0.2" fill="#fff" opacity="0.31" />
    <circle cx="126.2" cy="709.8" r="0.7" fill="#fff" opacity="0.31" />
    <circle cx="470.6" cy="509.8" r="0.4" fill="#fff" opacity="0.27" />
    <circle cx="291.6" cy="743.3" r="1.8" fill="#fff" opacity="0.35" />
    <circle cx="484.1" cy="546.5" r="0.9" fill="#fff" opacity="0.33" />
    <circle cx="830.5" cy="703.5" r="1.8" fill="#fff" opacity="0.14" />
    <circle cx="358.3" cy="117.2" r="0.5" fill="#fff" opacity="0.11" />
    <circle cx="543.8" cy="531.9" r="0.3" fill="#fff" opacity="0.44" />
    <circle cx="490.1" cy="105.9" r="0.9" fill="#fff" opacity="0.07" />
    <circle cx="859.4" cy="560.5" r="0.9" fill="#fff" opacity="0.41" />
    <circle cx="763.4" cy="643.4" r="0.8" fill="#fff" opacity="0.41" />
    <circle cx="856.8" cy="251.4" r="0.5" fill="#fff" opacity="0.23" />
    <circle cx="470.6" cy="574.9" r="1.0" fill="#fff" opacity="0.48" />
    <circle cx="49.8" cy="553.2" r="1.5" fill="#fff" opacity="0.34" />
    <circle cx="443.6" cy="646.4" r="0.2" fill="#fff" opacity="0.25" />
    <circle cx="507.4" cy="687.3" r="0.4" fill="#fff" opacity="0.23" />
    <circle cx="495.9" cy="326.8" r="0.3" fill="#fff" opacity="0.45" />
    <circle cx="361.5" cy="677.8" r="0.2" fill="#fff" opacity="0.49" />
    <circle cx="678.7" cy="244.5" r="1.6" fill="#fff" opacity="0.35" />
    <circle cx="856.7" cy="491.6" r="1.8" fill="#fff" opacity="0.16" />
    <circle cx="364.6" cy="362.1" r="0.7" fill="#fff" opacity="0.43" />
    <circle cx="91.5" cy="198.2" r="0.7" fill="#fff" opacity="0.43" />
    <circle cx="657.8" cy="170.7" r="1.4" fill="#fff" opacity="0.24" />
    <circle cx="472.7" cy="674.8" r="1.4" fill="#fff" opacity="0.35" />
    <circle cx="943.9" cy="662.3" r="0.9" fill="#fff" opacity="0.28" />
    <circle cx="1.4" cy="262.6" r="0.9" fill="#fff" opacity="0.30" />
    <circle cx="33.3" cy="641.1" r="0.6" fill="#fff" opacity="0.26" />
    <circle cx="14.4" cy="629.0" r="1.3" fill="#fff" opacity="0.27" />
    <circle cx="44.4" cy="421.3" r="0.6" fill="#fff" opacity="0.14" />
    <circle cx="708.6" cy="267.4" r="0.5" fill="#fff" opacity="0.42" />
    <circle cx="836.0" cy="466.0" r="0.5" fill="#fff" opacity="0.39" />
    <circle cx="466.6" cy="263.7" r="0.4" fill="#fff" opacity="0.28" />
    <circle cx="408.5" cy="260.2" r="0.1" fill="#fff" opacity="0.37" />
    <circle cx="359.1" cy="174.3" r="0.1" fill="#fff" opacity="0.20" />
    <circle cx="465.5" cy="116.2" r="0.9" fill="#fff" opacity="0.16" />
    <circle cx="499.2" cy="382.6" r="1.8" fill="#fff" opacity="0.11" />
    <circle cx="780.8" cy="543.3" r="1.8" fill="#fff" opacity="0.47" />
    <circle cx="897.1" cy="182.5" r="1.2" fill="#fff" opacity="0.29" />
    <circle cx="172.4" cy="306.3" r="1.1" fill="#fff" opacity="0.23" />
    <circle cx="228.0" cy="359.8" r="0.2" fill="#fff" opacity="0.43" />
    <circle cx="87.0" cy="178.4" r="0.6" fill="#fff" opacity="0.26" />
    <circle cx="43.4" cy="104.1" r="1.4" fill="#fff" opacity="0.25" />
    <circle cx="19.9" cy="51.6" r="0.2" fill="#fff" opacity="0.23" />
    <circle cx="174.1" cy="531.8" r="1.2" fill="#fff" opacity="0.44" />
    <circle cx="622.8" cy="684.5" r="1.0" fill="#fff" opacity="0.49" />
    <circle cx="106.9" cy="717.5" r="0.8" fill="#fff" opacity="0.43" />
    <circle cx="237.6" cy="566.7" r="0.5" fill="#fff" opacity="0.40" />
    <circle cx="770.3" cy="598.9" r="0.5" fill="#fff" opacity="0.40" />
    <circle cx="934.9" cy="75.3" r="1.7" fill="#fff" opacity="0.03" />
    <circle cx="936.7" cy="610.0" r="1.0" fill="#fff" opacity="0.41" />
    <circle cx="692.0" cy="245.8" r="2.0" fill="#fff" opacity="0.27" />
    <circle cx="552.4" cy="156.4" r="1.7" fill="#fff" opacity="0.29" />
    <circle cx="459.1" cy="485.5" r="0.6" fill="#fff" opacity="0.46" />
    <circle cx="865.1" cy="443.6" r="0.0" fill="#fff" opacity="0.47" />
    <circle cx="816.9" cy="140.9" r="0.3" fill="#fff" opacity="0.17" />
    <circle cx="616.6" cy="239.2" r="1.5" fill="#fff" opacity="0.47" />
    <circle cx="411.4" cy="216.5" r="1.8" fill="#fff" opacity="0.29" />
    <circle cx="748.9" cy="462.3" r="2.0" fill="#fff" opacity="0.49" />
    <circle cx="699.9" cy="443.5" r="0.7" fill="#fff" opacity="0.45" />
    <circle cx="928.6" cy="220.3" r="0.7" fill="#fff" opacity="0.42" />
    <circle cx="891.8" cy="736.7" r="1.9" fill="#fff" opacity="0.48" />
    <circle cx="496.6" cy="279.0" r="1.8" fill="#fff" opacity="0.35" />
    <circle cx="356.8" cy="195.7" r="1.1" fill="#fff" opacity="0.39" />
    <circle cx="160.0" cy="691.9" r="1.6" fill="#fff" opacity="0.32" />
    <circle cx="161.6" cy="480.7" r="0.9" fill="#fff" opacity="0.47" />
    <circle cx="758.3" cy="140.0" r="0.9" fill="#fff" opacity="0.20" />
    <circle cx="588.7" cy="366.4" r="1.1" fill="#fff" opacity="0.45" />
    <circle cx="99.6" cy="602.5" r="1.3" fill="#fff" opacity="0.50" />
    <circle cx="373.2" cy="353.0" r="1.8" fill="#fff" opacity="0.37" />
    <circle cx="267.2" cy="170.8" r="1.9" fill="#fff" opacity="0.29" />
    <circle cx="210.1" cy="605.1" r="0.9" fill="#fff" opacity="0.45" />
    <circle cx="673.0" cy="262.1" r="1.4" fill="#fff" opacity="0.46" />
    <circle cx="859.5" cy="336.0" r="1.7" fill="#fff" opacity="0.06" />
    <circle cx="126.1" cy="173.4" r="1.5" fill="#fff" opacity="0.31" />
    <circle cx="624.5" cy="477.4" r="0.5" fill="#fff" opacity="0.32" />
    <circle cx="4.1" cy="702.3" r="1.2" fill="#fff" opacity="0.36" />
    <circle cx="353.5" cy="70.2" r="0.8" fill="#fff" opacity="0.40" />
    <circle cx="891.3" cy="265.3" r="1.9" fill="#fff" opacity="0.49" />
    <circle cx="264.7" cy="347.9" r="1.2" fill="#fff" opacity="0.19" />
    <circle cx="401.4" cy="561.4" r="1.2" fill="#fff" opacity="0.27" />
    <circle cx="167.0" cy="451.7" r="1.8" fill="#fff" opacity="0.38" />
    <circle cx="466.5" cy="723.7" r="1.3" fill="#fff" opacity="0.19" />
    <circle cx="814.7" cy="385.0" r="0.4" fill="#fff" opacity="0.43" />
    <circle cx="516.0" cy="241.8" r="1.8" fill="#fff" opacity="0.38" />
    <circle cx="11.2" cy="483.7" r="0.5" fill="#fff" opacity="0.49" />
    <circle cx="505.1" cy="521.2" r="0.4" fill="#fff" opacity="0.31" />
    <circle cx="702.4" cy="356.5" r="1.2" fill="#fff" opacity="0.12" />
    <circle cx="483.5" cy="8.0" r="1.0" fill="#fff" opacity="0.48" />
    <circle cx="973.0" cy="0.5" r="0.9" fill="#fff" opacity="0.23" />
    <circle cx="551.3" cy="635.0" r="1.5" fill="#fff" opacity="0.17" />
    <circle cx="51.2" cy="394.4" r="1.7" fill="#fff" opacity="0.36" />
    <circle cx="144.8" cy="101.0" r="1.9" fill="#fff" opacity="0.48" />
    <circle cx="46.6" cy="447.8" r="0.4" fill="#fff" opacity="0.49" />
    <circle cx="542.0" cy="143.0" r="1.0" fill="#fff" opacity="0.46" />
    <circle cx="543.0" cy="270.7" r="0.2" fill="#fff" opacity="0.06" />
    <circle cx="315.3" cy="272.0" r="1.6" fill="#fff" opacity="0.36" />
    <circle cx="10.8" cy="148.6" r="0.9" fill="#fff" opacity="0.19" />
    <circle cx="885.3" cy="126.8" r="1.5" fill="#fff" opacity="0.43" />
    <circle cx="229.9" cy="361.2" r="0.4" fill="#fff" opacity="0.32" />
    <circle cx="621.2" cy="255.6" r="1.8" fill="#fff" opacity="0.31" />
    <circle cx="670.2" cy="165.1" r="0.1" fill="#fff" opacity="0.20" />
    <circle cx="226.1" cy="102.9" r="1.3" fill="#fff" opacity="0.48" />
    <circle cx="680.6" cy="68.9" r="0.8" fill="#fff" opacity="0.35" />
    <circle cx="578.0" cy="728.8" r="2.0" fill="#fff" opacity="0.38" />
    <circle cx="663.0" cy="596.3" r="1.7" fill="#fff" opacity="0.39" />
    <circle cx="848.0" cy="99.8" r="1.0" fill="#fff" opacity="0.32" />
    <circle cx="687.0" cy="493.7" r="1.5" fill="#fff" opacity="0.39" />
    <circle cx="993.7" cy="443.3" r="1.4" fill="#fff" opacity="0.31" />
    <circle cx="387.2" cy="719.6" r="1.9" fill="#fff" opacity="0.41" />
    <circle cx="868.7" cy="333.8" r="0.5" fill="#fff" opacity="0.48" />
    <circle cx="339.4" cy="547.0" r="1.0" fill="#fff" opacity="0.08" />
    <circle cx="474.9" cy="57.7" r="0.4" fill="#fff" opacity="0.24" />
    <circle cx="174.7" cy="274.2" r="1.4" fill="#fff" opacity="0.12" />
    <circle cx="312.0" cy="292.3" r="1.2" fill="#fff" opacity="0.38" />
    <circle cx="542.8" cy="302.7" r="0.5" fill="#fff" opacity="0.45" />
    <circle cx="298.0" cy="220.2" r="1.4" fill="#fff" opacity="0.43" />
    <circle cx="481.1" cy="516.5" r="1.3" fill="#fff" opacity="0.41" />
    <circle cx="842.4" cy="708.7" r="1.1" fill="#fff" opacity="0.33" />
    <circle cx="22.9" cy="601.6" r="1.5" fill="#fff" opacity="0.45" />
    <circle cx="689.2" cy="215.9" r="1.6" fill="#fff" opacity="0.19" />
    <circle cx="882.6" cy="486.8" r="0.7" fill="#fff" opacity="0.29" />
    <circle cx="824.1" cy="343.8" r="0.4" fill="#fff" opacity="0.26" />
    <circle cx="694.7" cy="595.3" r="1.7" fill="#fff" opacity="0.45" />
    <circle cx="655.7" cy="656.3" r="0.3" fill="#fff" opacity="0.50" />
    <circle cx="167.6" cy="481.6" r="1.5" fill="#fff" opacity="0.37" />
    <circle cx="897.7" cy="733.3" r="1.1" fill="#fff" opacity="0.41" />
    <circle cx="597.2" cy="445.1" r="0.8" fill="#fff" opacity="0.35" />
    <circle cx="687.9" cy="498.7" r="1.4" fill="#fff" opacity="0.40" />
    <circle cx="845.5" cy="587.5" r="0.6" fill="#fff" opacity="0.19" />
    <circle cx="714.0" cy="746.5" r="1.7" fill="#fff" opacity="0.40" />
    <circle cx="276.0" cy="687.5" r="1.8" fill="#fff" opacity="0.43" />
    <circle cx="266.9" cy="558.6" r="0.5" fill="#fff" opacity="0.12" />
    <circle cx="219.4" cy="576.4" r="0.2" fill="#fff" opacity="0.27" />
    <circle cx="679.6" cy="703.5" r="1.7" fill="#fff" opacity="0.23" />
    <circle cx="998.8" cy="98.6" r="1.8" fill="#fff" opacity="0.28" />
    <circle cx="715.2" cy="61.3" r="2.0" fill="#fff" opacity="0.07" />
    <circle cx="742.3" cy="343.7" r="0.8" fill="#fff" opacity="0.37" />
    <circle cx="707.9" cy="685.4" r="1.1" fill="#fff" opacity="0.40" />
    <circle cx="350.0" cy="525.7" r="0.1" fill="#fff" opacity="0.40" />
    <circle cx="767.7" cy="691.8" r="0.4" fill="#fff" opacity="0.46" />
    <circle cx="812.0" cy="531.8" r="0.0" fill="#fff" opacity="0.47" />
    <circle cx="236.8" cy="344.8" r="1.6" fill="#fff" opacity="0.33" />
    <circle cx="597.7" cy="51.1" r="1.0" fill="#fff" opacity="0.49" />
    <circle cx="765.9" cy="401.4" r="1.8" fill="#fff" opacity="0.14" />
    <circle cx="239.6" cy="26.4" r="1.5" fill="#fff" opacity="0.26" />
    <circle cx="32.3" cy="380.3" r="1.2" fill="#fff" opacity="0.42" />
    <circle cx="60.2" cy="429.9" r="1.8" fill="#fff" opacity="0.45" />
    <circle cx="938.3" cy="351.4" r="0.8" fill="#fff" opacity="0.23" />
    <circle cx="819.1" cy="357.5" r="0.7" fill="#fff" opacity="0.34" />
    <circle cx="959.5" cy="193.2" r="1.4" fill="#fff" opacity="0.42" />
    <circle cx="662.9" cy="374.6" r="1.8" fill="#fff" opacity="0.34" />
    <circle cx="651.0" cy="716.1" r="1.2" fill="#fff" opacity="0.49" />
    <circle cx="285.3" cy="210.0" r="0.1" fill="#fff" opacity="0.15" />
    <circle cx="805.9" cy="310.3" r="0.3" fill="#fff" opacity="0.49" />
    <circle cx="977.6" cy="318.2" r="1.5" fill="#fff" opacity="0.28" />
    <circle cx="714.2" cy="296.5" r="1.3" fill="#fff" opacity="0.31" />
    <circle cx="490.4" cy="359.7" r="0.6" fill="#fff" opacity="0.04" />
    <circle cx="583.0" cy="705.6" r="0.7" fill="#fff" opacity="0.27" />
    <circle cx="974.0" cy="273.2" r="1.8" fill="#fff" opacity="0.30" />
    <circle cx="435.6" cy="107.2" r="0.4" fill="#fff" opacity="0.44" />
    <circle cx="371.6" cy="379.2" r="0.7" fill="#fff" opacity="0.47" />
    <circle cx="865.2" cy="357.2" r="0.9" fill="#fff" opacity="0.28" />
    <circle cx="221.8" cy="732.6" r="1.8" fill="#fff" opacity="0.27" />
    <circle cx="602.5" cy="444.6" r="1.6" fill="#fff" opacity="0.04" />
    <circle cx="116.0" cy="621.2" r="0.3" fill="#fff" opacity="0.27" />
    <circle cx="905.4" cy="746.0" r="1.5" fill="#fff" opacity="0.11" />
    <circle cx="226.9" cy="222.6" r="1.6" fill="#fff" opacity="0.42" />
    <circle cx="43.5" cy="709.9" r="0.2" fill="#fff" opacity="0.25" />
    <circle cx="164.2" cy="315.7" r="0.4" fill="#fff" opacity="0.24" />
    <circle cx="737.1" cy="248.4" r="2.0" fill="#fff" opacity="0.29" />
    <circle cx="519.5" cy="52.0" r="1.3" fill="#fff" opacity="0.09" />
    <circle cx="153.5" cy="58.4" r="1.0" fill="#fff" opacity="0.40" />
    <circle cx="775.8" cy="482.0" r="0.4" fill="#fff" opacity="0.38" />
    <circle cx="485.2" cy="488.2" r="0.7" fill="#fff" opacity="0.29" />
    <circle cx="482.9" cy="555.7" r="0.6" fill="#fff" opacity="0.41" />
    <circle cx="840.0" cy="502.2" r="1.1" fill="#fff" opacity="0.37" />
    <circle cx="621.0" cy="469.4" r="1.2" fill="#fff" opacity="0.26" />
    <circle cx="622.1" cy="664.7" r="0.8" fill="#fff" opacity="0.48" />
</svg>