<svg xmlns="http://www.w3.org/2000/svg" width="88" height="88">
	<rect x="0" y="0" width="88" height="88" rx="4" ry="4" fill="#c00" stroke="#000000" stroke-width="1" />
	<g stroke="#000000" opacity="0.25">
		<line x1="1" y1="1" x2="87" y2="87" />
		<line x1="1" y1="87" x2="87" y2="1" />
	</g>
	<g fill="#000000" opacity="0.75" stroke="none">
 		<ellipse cx="44" cy="4" rx="5" ry="2" />
 		<ellipse cx="44" cy="84" rx="5" ry="2" />
 		<ellipse cx="4" cy="44" rx="2" ry="5" />
 		<ellipse cx="84" cy="44" rx="2" ry="5" />
 		<ellipse cx="57" cy="4" rx="5" ry="2" />
 		<ellipse cx="31" cy="84" rx="5" ry="2" />
 		<ellipse cx="4" cy="31" rx="2" ry="5" />
 		<ellipse cx="84" cy="57" rx="2" ry="5" />
 		<ellipse cx="70" cy="4" rx="5" ry="2" />
 		<ellipse cx="18" cy="84" rx="5" ry="2" />
 		<ellipse cx="4" cy="18" rx="2" ry="5" />
 		<ellipse cx="84" cy="70" rx="2" ry="5" />
 	</g>
</svg>