<svg xmlns="http://www.w3.org/2000/svg" width="88" height="88">
	<rect x="0" y="0" width="88" height="88" rx="4" ry="4" fill="#090" stroke="#000000" stroke-width="1" />
	<g stroke="#000000" opacity="0.25">
		<line x1="1" y1="1" x2="87" y2="87" />
		<line x1="1" y1="87" x2="87" y2="1" />
	</g>
	<g fill="#000000" opacity="0.75" stroke="none">
 		<ellipse cx="44" cy="5" rx="5" ry="3" />
 		<ellipse cx="44" cy="83" rx="5" ry="3" />
 		<ellipse cx="5" cy="44" rx="3" ry="5" />
 		<ellipse cx="83" cy="44" rx="3" ry="5" />
 		<ellipse cx="57" cy="5" rx="5" ry="3" />
 		<ellipse cx="31" cy="83" rx="5" ry="3" />
 		<ellipse cx="5" cy="31" rx="3" ry="5" />
 		<ellipse cx="83" cy="57" rx="3" ry="5" />
 		<ellipse cx="70" cy="5" rx="5" ry="3" />
 		<ellipse cx="18" cy="83" rx="5" ry="3" />
 		<ellipse cx="5" cy="18" rx="3" ry="5" />
 		<ellipse cx="83" cy="70" rx="3" ry="5" />
 	</g>
</svg>