<svg xmlns="http://www.w3.org/2000/svg" width="68" height="68">
	<rect x="0" y="0" width="68" height="68" rx="4" ry="4" fill="#c00" stroke="#000000" stroke-width="1" />
	<g fill="#000000" opacity="0.75" stroke="none">
 		<ellipse cx="34" cy="5" rx="5" ry="3" />
 		<ellipse cx="34" cy="63" rx="5" ry="3" />
 		<ellipse cx="5" cy="34" rx="3" ry="5" />
 		<ellipse cx="63" cy="34" rx="3" ry="5" />
 		<ellipse cx="47" cy="5" rx="5" ry="3" />
 		<ellipse cx="21" cy="63" rx="5" ry="3" />
 		<ellipse cx="5" cy="21" rx="3" ry="5" />
 		<ellipse cx="63" cy="47" rx="3" ry="5" />
 	</g>
 	<g stroke="#000000" opacity="0.75" stroke-width="3" stroke-linejoin="round" fill="none" transform="translate(34 34) scale(1.4)">
    	
		<path fill="white" stroke="white" d="M12.0,0.0 L3.7,1.5 L8.5,8.5 L1.5,3.7 L0.0,12.0 L-1.5,3.7 L-8.5,8.5 L-3.7,1.5 L-12.0,0.0 L-3.7,-1.5 L-8.5,-8.5 L-1.5,-3.7 L-0.0,-12.0 L1.5,-3.7 L8.5,-8.5 L3.7,-1.5 Z" />
    </g>
</svg>