<svg xmlns="http://www.w3.org/2000/svg" width="88" height="88">
	<rect x="0" y="0" width="88" height="88" rx="4" ry="4" fill="#c00" stroke="#000000" stroke-width="1" />
	<g fill="#000000" opacity="0.75" stroke="none">
 		<ellipse cx="44" cy="5" rx="5" ry="3" />
 		<ellipse cx="44" cy="83" rx="5" ry="3" />
 		<ellipse cx="5" cy="44" rx="3" ry="5" />
 		<ellipse cx="83" cy="44" rx="3" ry="5" />
 		<ellipse cx="57" cy="5" rx="5" ry="3" />
 		<ellipse cx="31" cy="83" rx="5" ry="3" />
 		<ellipse cx="5" cy="31" rx="3" ry="5" />
 		<ellipse cx="83" cy="57" rx="3" ry="5" />
 		<ellipse cx="70" cy="5" rx="5" ry="3" />
 		<ellipse cx="18" cy="83" rx="5" ry="3" />
 		<ellipse cx="5" cy="18" rx="3" ry="5" />
 		<ellipse cx="83" cy="70" rx="3" ry="5" />
 	</g>
 	<g stroke="#000000" opacity="0.75" stroke-width="3" stroke-linejoin="round" fill="none" transform="translate(44 44) scale(1.9)">
    	
		<path fill="white" stroke="white" d="M12.0,0.0 L3.7,1.5 L8.5,8.5 L1.5,3.7 L0.0,12.0 L-1.5,3.7 L-8.5,8.5 L-3.7,1.5 L-12.0,0.0 L-3.7,-1.5 L-8.5,-8.5 L-1.5,-3.7 L-0.0,-12.0 L1.5,-3.7 L8.5,-8.5 L3.7,-1.5 Z" />
    </g>
</svg>