<svg xmlns="http://www.w3.org/2000/svg" width="88" height="88">
	<rect x="0" y="0" width="88" height="88" rx="4" ry="4" fill="#00c" stroke="#000000" stroke-width="1" />
	<g fill="#000000" opacity="0.75" stroke="none">
 		<ellipse cx="44" cy="5" rx="5" ry="3" />
 		<ellipse cx="44" cy="83" rx="5" ry="3" />
 		<ellipse cx="5" cy="44" rx="3" ry="5" />
 		<ellipse cx="83" cy="44" rx="3" ry="5" />
 		<ellipse cx="57" cy="5" rx="5" ry="3" />
 		<ellipse cx="31" cy="83" rx="5" ry="3" />
 		<ellipse cx="5" cy="31" rx="3" ry="5" />
 		<ellipse cx="83" cy="57" rx="3" ry="5" />
 		<ellipse cx="70" cy="5" rx="5" ry="3" />
 		<ellipse cx="18" cy="83" rx="5" ry="3" />
 		<ellipse cx="5" cy="18" rx="3" ry="5" />
 		<ellipse cx="83" cy="70" rx="3" ry="5" />
 	</g>
 	<g stroke="#000000" opacity="0.75" stroke-width="3" stroke-linejoin="round" fill="none" transform="translate(44 44) scale(1.9)">
    	
		<path stroke="white" d="M-10,5 h20 l-7,-7 m0,14 l7,-7" />
		<path stroke="white" d="M10,-5 h-20 l7,7 m0,-14 l-7,7" />
    </g>
</svg>